<?xml version="1.0" encoding="utf-8"?>
<svg version="1.1" xmlns:xlink="http://www.w3.org/1999/xlink" width="22px" height="39px" xmlns="http://www.w3.org/2000/svg">
  <g transform="matrix(1 0 0 1 -1064 -1050 )">
    <path d="M 21.6219931271478 18.6012024048096  C 21.8739977090493 18.8617234468938  22 19.1613226452906  22 19.5  C 22 19.8386773547094  21.8739977090493 20.1382765531062  21.6219931271478 20.3987975951904  L 4.00687285223368 38.6092184368737  C 3.75486827033219 38.8697394789579  3.46506300114548 39  3.13745704467354 39  C 2.8098510882016 39  2.52004581901489 38.8697394789579  2.2680412371134 38.6092184368737  L 0.378006872852234 36.6553106212425  C 0.126002290950745 36.3947895791583  0 36.0951903807615  0 35.7565130260521  C 0 35.4178356713427  0.126002290950745 35.1182364729459  0.378006872852234 34.8577154308617  L 15.233676975945 19.5  L 0.378006872852234 4.14228456913828  C 0.126002290950745 3.88176352705411  0 3.58216432865731  0 3.2434869739479  C 0 2.90480961923847  0.126002290950745 2.60521042084168  0.378006872852234 2.34468937875751  L 2.2680412371134 0.390781563126253  C 2.52004581901489 0.130260521042083  2.8098510882016 0  3.13745704467354 0  C 3.46506300114548 0  3.75486827033219 0.130260521042083  4.00687285223368 0.390781563126253  L 21.6219931271478 18.6012024048096  Z " fill-rule="nonzero" fill="#2699fb" stroke="none" transform="matrix(1 0 0 1 1064 1050 )" />
  </g>
</svg>