<?xml version="1.0" encoding="utf-8"?>
<svg version="1.1" xmlns:xlink="http://www.w3.org/1999/xlink" width="108px" height="82px" xmlns="http://www.w3.org/2000/svg">
  <g transform="matrix(1 0 0 1 -628 -245 )">
    <path d="M 106.049032258065 11.3198653198653  C 107.349677419355 12.6083052749719  108 14.1728395061728  108 16.013468013468  C 108 17.8540965207632  107.349677419355 19.4186307519641  106.049032258065 20.7070707070707  L 55.6025806451613 70.6801346801347  L 46.1264516129032 80.0673400673401  C 44.8258064516129 81.3557800224467  43.2464516129032 82  41.3883870967742 82  C 39.5303225806452 82  37.9509677419355 81.3557800224467  36.6503225806452 80.0673400673401  L 27.1741935483871 70.6801346801347  L 1.95096774193548 45.6936026936027  C 0.650322580645162 44.4051627384961  0 42.8406285072952  0 41  C 0 39.1593714927048  0.650322580645162 37.5948372615039  1.95096774193548 36.3063973063973  L 11.4270967741935 26.9191919191919  C 12.7277419354839 25.6307519640853  14.3070967741936 24.986531986532  16.1651612903226 24.986531986532  C 18.0232258064516 24.986531986532  19.6025806451613 25.6307519640853  20.9032258064516 26.9191919191919  L 41.3883870967742 47.2811447811448  L 87.0967741935484 1.93265993265993  C 88.3974193548387 0.644219977553308  89.9767741935484 0  91.8348387096774 0  C 93.6929032258065 0  95.2722580645161 0.644219977553308  96.5729032258064 1.93265993265993  L 106.049032258065 11.3198653198653  Z " fill-rule="nonzero" fill="#2699fb" stroke="none" transform="matrix(1 0 0 1 628 245 )" />
  </g>
</svg>