<?xml version="1.0" encoding="utf-8"?>
<svg version="1.1" xmlns:xlink="http://www.w3.org/1999/xlink" width="209px" height="146px" xmlns="http://www.w3.org/2000/svg">
  <g transform="matrix(1 0 0 1 -579 -442 )">
    <path d="M 83 41.5984126984127  L 83 99.8825396825397  L 139.333333333333 70.9142857142857  L 83 41.5984126984127  Z M 31.4548494983278 2.08571428571428  C 50.9490895577852 0.695238095238093  75.2974730583426 0  104.5 0  C 117.547937569677 0  130.149293942772 0.173809523809523  142.304069119287 0.52142857142857  C 154.458844295801 0.869047619047616  163.37105165366 1.23597883597883  169.040691192865 1.62222222222222  L 177.545150501672 2.08571428571428  C 177.62281679673 2.08571428571428  178.282980304719 2.14365079365079  179.525641025641 2.2595238095238  C 180.768301746563 2.37539682539683  181.661464139725 2.49126984126985  182.205128205128 2.60714285714286  C 182.748792270531 2.72301587301588  183.661371237458 2.8968253968254  184.942865105909 3.12857142857143  C 186.224358974359 3.36031746031746  187.33110367893 3.66931216931215  188.263099219621 4.05555555555556  C 189.195094760312 4.44179894179893  190.282422891119 4.94391534391532  191.52508361204 5.56190476190476  C 192.767744332962 6.17989417989416  193.971571906355 6.93306878306878  195.136566332219 7.82142857142858  C 196.301560758083 8.70978835978834  197.427722036418 9.73333333333333  198.515050167224 10.8920634920635  C 198.98104793757 11.3555555555555  199.582961724266 12.0701058201058  200.320791527313 13.0357142857143  C 201.05862133036 14.0013227513227  202.184782608696 16.2608465608466  203.699275362319 19.8142857142857  C 205.213768115942 23.3677248677248  206.242846525455 27.2687830687831  206.786510590858 31.5174603174603  C 207.407840951319 36.4613756613757  207.893255295429 41.7335978835979  208.242753623188 47.334126984127  C 208.592251950948 52.9346560846561  208.805834262356 57.3185185185185  208.883500557414 60.4857142857143  L 208 65.1206349206349  L 208 80.8793650793651  C 208.961166852471 92.0804232804233  208.262170196953 103.281481481481  206.786510590858 114.48253968254  C 206.242846525455 118.731216931217  205.272017837235 122.574338624339  203.874024526198 126.011904761905  C 202.476031215162 129.449470899471  201.23337049424 131.824867724868  200.146042363434 133.138095238095  L 198.515050167224 135.107936507937  C 197.427722036418 136.266666666667  196.301560758083 137.290211640212  195.136566332219 138.178571428571  C 193.971571906355 139.066931216931  192.767744332962 139.800793650794  191.52508361204 140.380158730159  C 190.282422891119 140.959523809524  189.195094760312 141.442328042328  188.263099219621 141.828571428571  C 187.33110367893 142.214814814815  186.224358974359 142.52380952381  184.942865105909 142.755555555556  C 183.661371237458 142.987301587302  182.729375696767 143.161111111111  182.146878483835 143.276984126984  C 181.564381270903 143.392857142857  180.671218877741 143.50873015873  179.467391304348 143.624603174603  C 178.263563730955 143.740476190476  177.62281679673 143.798412698413  177.545150501672 143.798412698413  C 158.050910442215 145.266137566138  133.702526941657 146  104.5 146  C 88.4230769230769 145.845502645503  74.4625603864734 145.594444444444  62.6184503901895 145.246825396825  C 50.7743403939056 144.899206349206  42.9882943143813 144.609523809524  39.2603121516165 144.377777777778  L 33.5518394648829 143.914285714286  L 29.3578595317726 143.450793650794  C 26.561872909699 143.06455026455  24.4454663693794 142.678306878307  23.0086399108138 142.292063492063  C 21.5718134522482 141.90582010582  19.5913229282795 141.094708994709  17.0671683389075 139.85873015873  C 14.5430137495355 138.622751322751  12.3489409141583 137.039153439153  10.4849498327759 135.107936507937  C 10.0189520624303 134.644444444444  9.41703827573393 133.929894179894  8.67920847268673 132.964285714286  C 7.94137866963954 131.998677248677  6.81521739130435 129.739153439153  5.30072463768116 126.185714285714  C 3.78623188405797 122.632275132275  2.75715347454478 118.731216931217  2.21348940914158 114.48253968254  C 1.59215904868079 109.538624338624  1.10674470457079 104.266402116402  0.757246376811594 98.665873015873  C 0.407748049052397 93.0653439153439  0.194165737643999 88.6814814814815  0.116499442586399 85.5142857142857  L 1 80.8793650793651  L 1 65.1206349206349  C 0.0388331475287997 53.9195767195767  0.737829803047194 42.7185185185185  2.21348940914158 31.5174603174603  C 2.75715347454478 27.2687830687831  3.72798216276477 23.4256613756614  5.12597547380156 19.9880952380952  C 6.52396878483835 16.5505291005291  7.76662950575994 14.1751322751323  8.85395763656633 12.8619047619048  L 10.4849498327759 10.8920634920635  C 11.5722779635823 9.73333333333333  12.6984392419175 8.70978835978834  13.8634336677815 7.82142857142858  C 15.0284280936455 6.93306878306878  16.2322556670383 6.17989417989416  17.4749163879599 5.56190476190476  C 18.7175771088815 4.94391534391532  19.8049052396878 4.44179894179893  20.736900780379 4.05555555555556  C 21.6688963210702 3.66931216931215  22.775641025641 3.36031746031746  24.0571348940914 3.12857142857143  C 25.3386287625418 2.8968253968254  26.2512077294686 2.72301587301588  26.7948717948718 2.60714285714286  C 27.338535860275 2.49126984126985  28.2316982534374 2.37539682539683  29.474358974359 2.2595238095238  C 30.7170196952806 2.14365079365079  31.3771832032702 2.08571428571428  31.4548494983278 2.08571428571428  Z " fill-rule="nonzero" fill="#7fc4fd" stroke="none" transform="matrix(1 0 0 1 579 442 )" />
  </g>
</svg>