<?xml version="1.0" encoding="utf-8"?>
<svg version="1.1" xmlns:xlink="http://www.w3.org/1999/xlink" width="146px" height="102px" xmlns="http://www.w3.org/2000/svg">
  <g transform="matrix(1 0 0 1 -114 -406 )">
    <path d="M 58 29.0619047619048  L 58 69.7809523809524  L 97.3333333333333 49.5428571428571  L 58 29.0619047619048  Z M 21.9732441471572 1.45714285714285  C 35.5912300260126 0.485714285714284  52.6001486436269 0  73 0  C 82.1148272017837 0  90.9176885916016 0.121428571428571  99.4085841694537 0.364285714285713  C 107.899479747306 0.607142857142855  114.125232255667 0.863492063492057  118.085841694537 1.13333333333333  L 124.026755852843 1.45714285714285  C 124.081010776663 1.45714285714285  124.542177629134 1.49761904761904  125.410256410256 1.57857142857142  C 126.278335191379 1.65952380952381  126.90226681531 1.7404761904762  127.282051282051 1.82142857142858  C 127.661835748792 1.90238095238096  128.299331103679 2.02380952380953  129.194537346711 2.18571428571429  C 130.089743589744 2.34761904761905  130.862876254181 2.56349206349205  131.513935340022 2.83333333333333  C 132.164994425864 3.1031746031746  132.924563359346 3.45396825396824  133.792642140468 3.88571428571428  C 134.66072092159 4.31746031746031  135.501672240803 4.84365079365079  136.315496098105 5.46428571428572  C 137.129319955407 6.08492063492062  137.916016350799 6.8  138.675585284281 7.60952380952381  C 139.001114827202 7.93333333333333  139.421590486808 8.43253968253967  139.937012263099 9.10714285714286  C 140.452434039391 9.78174603174602  141.239130434783 11.3603174603175  142.297101449275 13.8428571428571  C 143.355072463768 16.3253968253968  144.073950204385 19.0507936507936  144.453734671126 22.0190476190476  C 144.887774061687 25.4730158730159  145.226867335563 29.1563492063492  145.471014492754 33.0690476190476  C 145.715161649944 36.981746031746  145.86436269045 40.0444444444444  145.91861761427 42.2571428571429  L 146 45.4952380952381  L 146 56.5047619047619  C 145.97287253809 64.3301587301587  145.484578223709 72.1555555555556  144.453734671126 79.9809523809524  C 144.073950204385 82.9492063492063  143.395763656633 85.634126984127  142.419175027871 88.0357142857143  C 141.442586399108 90.4373015873016  140.574507617986 92.0968253968254  139.814938684504 93.0142857142857  L 138.675585284281 94.3904761904762  C 137.916016350799 95.2  137.129319955407 95.9150793650794  136.315496098105 96.5357142857143  C 135.501672240803 97.1563492063492  134.66072092159 97.6690476190476  133.792642140468 98.0738095238095  C 132.924563359346 98.4785714285714  132.164994425864 98.815873015873  131.513935340022 99.0857142857143  C 130.862876254181 99.3555555555555  130.089743589744 99.5714285714286  129.194537346711 99.7333333333333  C 128.299331103679 99.8952380952381  127.648272017837 100.016666666667  127.241360089186 100.097619047619  C 126.834448160535 100.178571428571  126.210516536604 100.259523809524  125.369565217391 100.340476190476  C 124.528613898179 100.421428571429  124.081010776663 100.461904761905  124.026755852843 100.461904761905  C 110.408769973987 101.487301587302  93.3998513563731 102  73 102  C 61.7692307692308 101.892063492064  52.0169082125604 101.716666666667  43.7430323299889 101.47380952381  C 35.4691564474173 101.230952380952  30.0301003344482 101.028571428571  27.4258639910814 100.866666666667  L 23.438127090301 100.542857142857  L 20.5083612040134 100.219047619048  C 18.5551839464883 99.9492063492063  17.0767372723894 99.6793650793651  16.0730211817168 99.4095238095238  C 15.0693050910442 99.1396825396825  13.6858045336306 98.5730158730159  11.922519509476 97.7095238095238  C 10.1592344853214 96.8460317460317  8.62653288740245 95.7396825396825  7.32441471571906 94.3904761904762  C 6.99888517279822 94.0666666666667  6.57840951319212 93.5674603174603  6.06298773690078 92.8928571428571  C 5.54756596060944 92.218253968254  4.76086956521739 90.6396825396825  3.70289855072464 88.1571428571429  C 2.64492753623188 85.6746031746032  1.92604979561501 82.9492063492063  1.54626532887402 79.9809523809524  C 1.11222593831289 76.5269841269841  0.773132664437012 72.8436507936508  0.528985507246377 68.9309523809524  C 0.284838350055741 65.0182539682539  0.135637309550353 61.9555555555556  0.0813823857302118 59.7428571428571  L 0 56.5047619047619  L 0 45.4952380952381  C 0.0271274619100706 37.6698412698413  0.515421776291341 29.8444444444444  1.54626532887402 22.0190476190476  C 1.92604979561501 19.0507936507936  2.60423634336678 16.365873015873  3.58082497212932 13.9642857142857  C 4.55741360089186 11.5626984126984  5.42549238201412 9.90317460317459  6.1850613154961 8.98571428571429  L 7.32441471571906 7.60952380952381  C 8.08398364920104 6.8  8.87068004459309 6.08492063492062  9.68450390189521 5.46428571428572  C 10.4983277591973 4.84365079365079  11.3392790784095 4.31746031746031  12.2073578595318 3.88571428571428  C 13.075436640654 3.45396825396824  13.835005574136 3.1031746031746  14.4860646599777 2.83333333333333  C 15.1371237458194 2.56349206349205  15.9102564102564 2.34761904761905  16.8054626532887 2.18571428571429  C 17.7006688963211 2.02380952380953  18.3381642512077 1.90238095238096  18.7179487179487 1.82142857142858  C 19.0977331846897 1.7404761904762  19.7216648086213 1.65952380952381  20.5897435897436 1.57857142857142  C 21.4578223708659 1.49761904761904  21.9189892233371 1.45714285714285  21.9732441471572 1.45714285714285  Z " fill-rule="nonzero" fill="#7fc4fd" stroke="none" transform="matrix(1 0 0 1 114 406 )" />
  </g>
</svg>