<?xml version="1.0" encoding="utf-8"?>
<svg version="1.1" xmlns:xlink="http://www.w3.org/1999/xlink" width="14px" height="14px" viewBox="139 1072  14 14" xmlns="http://www.w3.org/2000/svg">
  <path d="M 139.5 1074  A 1.5 1.5 0 0 1 141 1072.5 L 151 1072.5  A 1.5 1.5 0 0 1 152.5 1074 L 152.5 1084  A 1.5 1.5 0 0 1 151 1085.5 L 141 1085.5  A 1.5 1.5 0 0 1 139.5 1084 L 139.5 1074  Z " fill-rule="nonzero" fill="#ffffff" stroke="none" />
  <path d="M 139.5 1074  A 1.5 1.5 0 0 1 141 1072.5 L 151 1072.5  A 1.5 1.5 0 0 1 152.5 1074 L 152.5 1084  A 1.5 1.5 0 0 1 151 1085.5 L 141 1085.5  A 1.5 1.5 0 0 1 139.5 1084 L 139.5 1074  Z " stroke-width="1" stroke="#2699fb" fill="none" />
</svg>