<?xml version="1.0" encoding="utf-8"?>
<svg version="1.1" xmlns:xlink="http://www.w3.org/1999/xlink" width="14px" height="14px" viewBox="139 366.5  14 14" xmlns="http://www.w3.org/2000/svg">
  <path d="M 139.5 368.5  A 1.5 1.5 0 0 1 141 367 L 151 367  A 1.5 1.5 0 0 1 152.5 368.5 L 152.5 378.5  A 1.5 1.5 0 0 1 151 380 L 141 380  A 1.5 1.5 0 0 1 139.5 378.5 L 139.5 368.5  Z " fill-rule="nonzero" fill="#f0f0f0" stroke="none" />
  <path d="M 139.5 368.5  A 1.5 1.5 0 0 1 141 367 L 151 367  A 1.5 1.5 0 0 1 152.5 368.5 L 152.5 378.5  A 1.5 1.5 0 0 1 151 380 L 141 380  A 1.5 1.5 0 0 1 139.5 378.5 L 139.5 368.5  Z " stroke-width="1" stroke="#2699fb" fill="none" />
  <path d="M 142.5 374  L 145.5 377  " stroke-width="3" stroke="#2699fb" fill="none" />
  <path d="M 145.5 377  L 150.5 370  " stroke-width="3" stroke="#2699fb" fill="none" />
</svg>