<?xml version="1.0" encoding="utf-8"?>
<svg version="1.1" xmlns:xlink="http://www.w3.org/1999/xlink" width="14px" height="14px" viewBox="36 1223  14 14" xmlns="http://www.w3.org/2000/svg">
  <path d="M 36.5 1225  A 1.5 1.5 0 0 1 38 1223.5 L 48 1223.5  A 1.5 1.5 0 0 1 49.5 1225 L 49.5 1235  A 1.5 1.5 0 0 1 48 1236.5 L 38 1236.5  A 1.5 1.5 0 0 1 36.5 1235 L 36.5 1225  Z " fill-rule="nonzero" fill="#ffffff" stroke="none" />
  <path d="M 36.5 1225  A 1.5 1.5 0 0 1 38 1223.5 L 48 1223.5  A 1.5 1.5 0 0 1 49.5 1225 L 49.5 1235  A 1.5 1.5 0 0 1 48 1236.5 L 38 1236.5  A 1.5 1.5 0 0 1 36.5 1235 L 36.5 1225  Z " stroke-width="1" stroke="#2699fb" fill="none" />
  <path d="M 39.5 1230.5  L 42.5 1233.5  " stroke-width="3" stroke="#2699fb" fill="none" />
  <path d="M 42.5 1233.5  L 47.5 1226.5  " stroke-width="3" stroke="#2699fb" fill="none" />
</svg>