<?xml version="1.0" encoding="utf-8"?>
<svg version="1.1" xmlns:xlink="http://www.w3.org/1999/xlink" width="14px" height="14px" viewBox="36 345  14 14" xmlns="http://www.w3.org/2000/svg">
  <path d="M 36.5 347  A 1.5 1.5 0 0 1 38 345.5 L 48 345.5  A 1.5 1.5 0 0 1 49.5 347 L 49.5 357  A 1.5 1.5 0 0 1 48 358.5 L 38 358.5  A 1.5 1.5 0 0 1 36.5 357 L 36.5 347  Z " fill-rule="nonzero" fill="#f0f0f0" stroke="none" />
  <path d="M 36.5 347  A 1.5 1.5 0 0 1 38 345.5 L 48 345.5  A 1.5 1.5 0 0 1 49.5 347 L 49.5 357  A 1.5 1.5 0 0 1 48 358.5 L 38 358.5  A 1.5 1.5 0 0 1 36.5 357 L 36.5 347  Z " stroke-width="1" stroke="#2699fb" fill="none" />
  <path d="M 39.5 352.5  L 42.5 355.5  " stroke-width="3" stroke="#2699fb" fill="none" />
  <path d="M 42.5 355.5  L 47.5 348.5  " stroke-width="3" stroke="#2699fb" fill="none" />
</svg>