<?xml version="1.0" encoding="utf-8"?>
<svg version="1.1" xmlns:xlink="http://www.w3.org/1999/xlink" width="14px" height="14px" viewBox="51 249.5  14 14" xmlns="http://www.w3.org/2000/svg">
  <path d="M 51.5 251.5  A 1.5 1.5 0 0 1 53 250 L 63 250  A 1.5 1.5 0 0 1 64.5 251.5 L 64.5 261.5  A 1.5 1.5 0 0 1 63 263 L 53 263  A 1.5 1.5 0 0 1 51.5 261.5 L 51.5 251.5  Z " fill-rule="nonzero" fill="#f0f0f0" stroke="none" />
  <path d="M 51.5 251.5  A 1.5 1.5 0 0 1 53 250 L 63 250  A 1.5 1.5 0 0 1 64.5 251.5 L 64.5 261.5  A 1.5 1.5 0 0 1 63 263 L 53 263  A 1.5 1.5 0 0 1 51.5 261.5 L 51.5 251.5  Z " stroke-width="1" stroke="#2699fb" fill="none" />
</svg>