<?xml version="1.0" encoding="utf-8"?>
<svg version="1.1" xmlns:xlink="http://www.w3.org/1999/xlink" width="35px" height="30px" xmlns="http://www.w3.org/2000/svg">
  <g transform="matrix(1 0 0 1 -321 -26 )">
    <path d="M 12.6622596153846 25.3551136363636  C 13.1951121794872 25.8948863636364  13.4615384615385 26.5340909090909  13.4615384615385 27.2727272727273  C 13.4615384615385 28.0113636363636  13.1951121794872 28.6505681818182  12.6622596153846 29.1903409090909  C 12.1294070512821 29.7301136363636  11.4983974358974 30  10.7692307692308 30  C 10.0400641025641 30  9.40905448717949 29.7301136363636  8.87620192307692 29.1903409090909  C 8.34334935897436 28.6505681818182  8.07692307692308 28.0113636363636  8.07692307692308 27.2727272727273  C 8.07692307692308 26.5340909090909  8.34334935897436 25.8948863636364  8.87620192307692 25.3551136363636  C 9.40905448717949 24.8153409090909  10.0400641025641 24.5454545454545  10.7692307692308 24.5454545454545  C 11.4983974358974 24.5454545454545  12.1294070512821 24.8153409090909  12.6622596153846 25.3551136363636  Z M 31.5084134615385 25.3551136363636  C 32.041266025641 25.8948863636364  32.3076923076923 26.5340909090909  32.3076923076923 27.2727272727273  C 32.3076923076923 28.0113636363636  32.041266025641 28.6505681818182  31.5084134615385 29.1903409090909  C 30.9755608974359 29.7301136363636  30.3445512820513 30  29.6153846153846 30  C 28.886217948718 30  28.2552083333333 29.7301136363636  27.7223557692308 29.1903409090909  C 27.1895032051282 28.6505681818182  26.9230769230769 28.0113636363636  26.9230769230769 27.2727272727273  C 26.9230769230769 26.5340909090909  27.1895032051282 25.8948863636364  27.7223557692308 25.3551136363636  C 28.2552083333333 24.8153409090909  28.886217948718 24.5454545454545  29.6153846153846 24.5454545454545  C 30.3445512820513 24.5454545454545  30.9755608974359 24.8153409090909  31.5084134615385 25.3551136363636  Z M 34.6003605769231 3.13210227272727  C 34.8667868589744 3.40198863636363  35 3.7215909090909  35 4.09090909090909  L 35 15  C 35 15.3409090909091  34.8843149038462 15.6427556818182  34.6529447115385 15.9055397727273  C 34.4215745192308 16.1683238636364  34.1376201923077 16.3210227272727  33.8010817307692 16.3636363636364  L 11.8419471153846 18.9630681818182  C 12.0242387820513 19.8153409090909  12.1153846153846 20.3125  12.1153846153846 20.4545454545455  C 12.1153846153846 20.6818181818182  11.9471153846154 21.1363636363636  11.6105769230769 21.8181818181818  L 30.9615384615385 21.8181818181818  C 31.3261217948718 21.8181818181818  31.6416266025641 21.953125  31.9080528846154 22.2230113636364  C 32.1744791666667 22.4928977272727  32.3076923076923 22.8125  32.3076923076923 23.1818181818182  C 32.3076923076923 23.5511363636364  32.1744791666667 23.8707386363636  31.9080528846154 24.140625  C 31.6416266025641 24.4105113636364  31.3261217948718 24.5454545454545  30.9615384615385 24  L 9.42307692307692 24  C 9.05849358974359 24.5454545454545  8.74298878205128 24.4105113636364  8.4765625 24.140625  C 8.21013621794872 23.8707386363636  8.07692307692308 23.5511363636364  8.07692307692308 23.1818181818182  C 8.07692307692308 23.0255681818182  8.13301282051282 22.8018465909091  8.24519230769231 22.5106534090909  C 8.3573717948718 22.2194602272727  8.46955128205128 21.9637784090909  8.58173076923077 21.7436079545455  C 8.69391025641026 21.5234375  8.84465144230769 21.2393465909091  9.03395432692308 20.8913352272727  C 9.22325721153846 20.5433238636364  9.33193108974359 20.3338068181818  9.35997596153846 20.2627840909091  L 5.63701923076923 2.72727272727273  L 1.34615384615385 2.72727272727273  C 0.981570512820513 2.72727272727273  0.666065705128205 2.59232954545454  0.399639423076923 2.32244318181818  C 0.133213141025641 2.05255681818182  0 1.73295454545454  0 1.36363636363636  C 0 0.99431818181818  0.133213141025641 0.674715909090905  0.399639423076923 0.404829545454547  C 0.666065705128205 0.134943181818179  0.981570512820513 0  1.34615384615385 0  L 6.73076923076923 0  C 6.95512820512821 0  7.15494791666667 0.0461647727272707  7.33022836538462 0.138494318181819  C 7.50550881410256 0.230823863636364  7.64222756410256 0.340909090909091  7.74038461538462 0.46875  C 7.83854166666667 0.596590909090909  7.9296875 0.770596590909086  8.01382211538462 0.990767045454547  C 8.09795673076923 1.2109375  8.15404647435898 1.39559659090909  8.18209134615385 1.54474431818182  C 8.21013621794872 1.69389204545455  8.24869791666667 1.90340909090909  8.29777644230769 2.17329545454545  C 8.34685496794872 2.44318181818181  8.37840544871795 2.62784090909091  8.39242788461539 3  L 33.6538461538462 3  C 34.0184294871795 2.72727272727273  34.3339342948718 2.86221590909091  34.6003605769231 3.13210227272727  Z " fill-rule="nonzero" fill="#ffffff" stroke="none" transform="matrix(1 0 0 1 321 26 )" />
  </g>
</svg>