<?xml version="1.0" encoding="utf-8"?>
<svg version="1.1" xmlns:xlink="http://www.w3.org/1999/xlink" width="96px" height="79px" xmlns="http://www.w3.org/2000/svg">
  <g transform="matrix(1 0 0 1 -488 -2098 )">
    <path d="M 29.8888888888889 69.6860795454545  C 31.2962962962963 68.264678030303  32 66.5814393939394  32 64.6363636363636  C 32 62.6912878787879  31.2962962962963 61.0080492424242  29.8888888888889 59.5866477272727  C 28.4814814814815 58.1652462121212  26.8148148148148 57.4545454545455  24.8888888888889 57.4545454545455  C 22.962962962963 57.4545454545455  21.2962962962963 58.1652462121212  19.8888888888889 59.5866477272727  C 18.4814814814815 61.0080492424242  17.7777777777778 62.6912878787879  17.7777777777778 64.6363636363636  C 17.7777777777778 66.5814393939394  18.4814814814815 68.264678030303  19.8888888888889 69.6860795454545  C 21.2962962962963 71.1074810606061  22.962962962963 71.8181818181818  24.8888888888889 71.8181818181818  C 26.8148148148148 71.8181818181818  28.4814814814815 71.1074810606061  29.8888888888889 69.6860795454545  Z M 10.6666666666667 34.2258522727273  L 10.6666666666667 36  L 32 36  L 32 21.5454545454545  L 23.2222222222222 21.5454545454545  C 22.7407407407407 21.5454545454545  22.3333333333333 21.7137784090909  22 22.0504261363636  L 11.1666666666667 32.9914772727273  C 10.8333333333333 33.328125  10.6666666666667 33.7395833333333  10.6666666666667 34.2258522727273  Z M 79.6666666666667 69.6860795454545  C 81.0740740740741 68.264678030303  81.7777777777778 66.5814393939394  81.7777777777778 64.6363636363636  C 81.7777777777778 62.6912878787879  81.0740740740741 61.0080492424242  79.6666666666667 59.5866477272727  C 78.2592592592593 58.1652462121212  76.5925925925926 57.4545454545455  74.6666666666667 57.4545454545455  C 72.7407407407407 57.4545454545455  71.0740740740741 58.1652462121212  69.6666666666667 59.5866477272727  C 68.2592592592593 61.0080492424242  67.5555555555556 62.6912878787879  67.5555555555556 64.6363636363636  C 67.5555555555556 66.5814393939394  68.2592592592593 68.264678030303  69.6666666666667 69.6860795454545  C 71.0740740740741 71.1074810606061  72.7407407407407 71.8181818181818  74.6666666666667 71.8181818181818  C 76.5925925925926 71.8181818181818  78.2592592592593 71.1074810606061  79.6666666666667 69.6860795454545  Z M 94.9444444444444 1.06605113636364  C 95.6481481481482 1.77675189393938  96 2.61837121212121  96 3.59090909090909  L 96 61.0454545454545  C 96 61.6065340909091  95.9259259259259 62.1021543560606  95.7777777777778 62.5323153409091  C 95.6296296296296 62.9624763257576  95.3796296296296 63.3084753787879  95.0277777777778 63.5703125  C 94.6759259259259 63.8321496212121  94.3703703703704 64.0472301136364  94.1111111111111 64.2155539772727  C 93.8518518518519 64.3838778409091  93.4166666666667 64.49609375  92.8055555555556 64.5522017045455  C 92.1944444444444 64.6083096590909  91.7777777777778 64.6457149621212  91.5555555555556 64.6644176136364  C 91.3333333333333 64.6831202651515  90.8611111111111 64.6831202651515  90.1388888888889 64.6644176136364  C 89.4166666666667 64.6457149621212  89 64.6363636363636  88.8888888888889 64.6363636363636  C 88.8888888888889 68.6013257575758  87.5 71.9865056818182  84.7222222222222 74.7919034090909  C 81.9444444444444 77.5973011363636  78.5925925925926 79  74.6666666666667 79  C 70.7407407407407 79  67.3888888888889 77.5973011363636  64.6111111111111 74.7919034090909  C 61.8333333333333 71.9865056818182  60.4444444444444 68.6013257575758  60.4444444444444 64  L 39.1111111111111 64  C 39.1111111111111 68.6013257575758  37.7222222222222 71.9865056818182  34.9444444444444 74.7919034090909  C 32.1666666666667 77.5973011363636  28.8148148148148 79  24.8888888888889 79  C 20.962962962963 79  17.6111111111111 77.5973011363636  14.8333333333333 74.7919034090909  C 12.0555555555556 71.9865056818182  10.6666666666667 68.6013257575758  10.6666666666667 64.6363636363636  L 7.11111111111111 64.6363636363636  C 7 64.6363636363636  6.58333333333333 64.6457149621212  5.86111111111111 64.6644176136364  C 5.13888888888889 64.6831202651515  4.66666666666667 64.6831202651515  4.44444444444444 64.6644176136364  C 4.22222222222222 64.6457149621212  3.80555555555556 64.6083096590909  3.19444444444444 64.5522017045455  C 2.58333333333333 64.49609375  2.14814814814815 64.3838778409091  1.88888888888889 64.2155539772727  C 1.62962962962963 64.0472301136364  1.32407407407407 63.8321496212121  0.972222222222222 63.5703125  C 0.620370370370371 63.3084753787879  0.370370370370371 62.9624763257576  0.222222222222222 62.5323153409091  C 0.0740740740740746 62.1021543560606  0 61.6065340909091  0 61.0454545454545  C 0 60.0729166666667  0.351851851851852 59.2312973484849  1.05555555555556 58.5205965909091  C 1.75925925925926 57.8098958333333  2.59259259259259 57.4545454545455  4 57.4545454545455  L 4 39.5  C 3.55555555555556 39.2007575757576  3.5462962962963 38.5461647727273  3.52777777777778 37.5362215909091  C 3.50925925925926 36.5262784090909  3.50925925925926 35.8155776515151  3.52777777777778 35.4041193181818  C 3.5462962962963 34.9926609848485  3.59259259259259 34.3474195075758  3.66666666666667 33.4683948863636  C 3.74074074074074 32.5893702651515  3.86111111111111 31.8973721590909  4.02777777777778 31.3924005681818  C 4.19444444444444 30.8874289772727  4.45370370370371 30.3169981060606  4.80555555555556 29.6811079545455  C 5.15740740740741 29.0452178030303  5.57407407407407 28.4841382575758  6.05555555555556 27.9978693181818  L 17.0555555555556 16.8884943181818  C 17.7592592592593 16.1777935606061  18.6944444444445 15.5793087121212  19.8611111111111 15.0930397727273  C 21.0277777777778 14.6067708333333  22.1111111111111 14.3636363636364  23.1111111111111 14.3636363636364  L 32 14.3636363636364  L 32 3.59090909090909  C 32 2.61837121212121  32.3518518518519 1.77675189393938  33.0555555555556 1.06605113636364  C 33.7592592592593 0.355350378787871  34.5925925925926 0  35.5555555555556 0  L 92.4444444444444 0  C 93.4074074074074 0  94.2407407407407 0.355350378787871  94.9444444444444 1.06605113636364  Z " fill-rule="nonzero" fill="#2699fb" stroke="none" transform="matrix(1 0 0 1 488 2098 )" />
  </g>
</svg>