<?xml version="1.0" encoding="utf-8"?>
<svg version="1.1" xmlns:xlink="http://www.w3.org/1999/xlink" width="79px" height="79px" xmlns="http://www.w3.org/2000/svg">
  <g transform="matrix(1 0 0 1 -1084 -2098 )">
    <path d="M 52.2037760416667 65.3704427083333  C 52.5123697916667 65.0618489583333  52.6666666666667 64.6675347222222  52.6666666666667 64.1875  L 52.6666666666667 55.9583333333333  C 52.6666666666667 55.4782986111111  52.5123697916667 55.083984375  52.2037760416667 54.775390625  C 51.8951822916667 54.466796875  51.5008680555556 54.3125  51.0208333333333 54.3125  L 46 54.3125  L 46 27.9791666666667  C 46.0833333333333 27.4991319444444  45.9290364583333 27.1048177083333  45.6204427083333 26.7962239583333  C 45.3118489583333 26.4876302083333  44.9175347222222 26.3333333333333  44.4375 27  L 27.9791666666667 27  C 27.4991319444445 26.3333333333333  27.1048177083333 26.4876302083333  26.7962239583333 26.7962239583333  C 26.4876302083333 27.1048177083333  26.3333333333333 27.4991319444444  26.3333333333333 27.9791666666667  L 26.3333333333333 36.2083333333333  C 26.3333333333333 36.6883680555556  26.4876302083333 37.0826822916667  26.7962239583333 37.3912760416667  C 27.1048177083333 37.6998697916667  27.4991319444445 37.8541666666667  27.9791666666667 37.8541666666667  L 33 37.8541666666667  L 33 54.3125  L 27.9791666666667 54.3125  C 27.4991319444445 54.3125  27.1048177083333 54.466796875  26.7962239583333 54.775390625  C 26.4876302083333 55.083984375  26.3333333333333 55.4782986111111  26.3333333333333 55.9583333333333  L 26.3333333333333 64.1875  C 26.3333333333333 64.6675347222222  26.4876302083333 65.0618489583333  26.7962239583333 65.3704427083333  C 27.1048177083333 65.6790364583333  27.4991319444445 65.8333333333333  27.9791666666667 65  L 51.0208333333333 65  C 51.5008680555556 65.8333333333333  51.8951822916667 65.6790364583333  52.2037760416667 65.3704427083333  Z M 45.6204427083333 19.287109375  C 45.9290364583333 18.978515625  46.0833333333333 18.5842013888889  46.0833333333333 18.1041666666667  L 46.0833333333333 9.875  C 46.0833333333333 9.39496527777777  45.9290364583333 9.00065104166666  45.6204427083333 8.69205729166666  C 45.3118489583333 8.38346354166666  44.9175347222222 8.22916666666666  44.4375 8.22916666666666  L 34.5625 8.22916666666666  C 34.0824652777778 8.22916666666666  33.6881510416667 8.38346354166666  33.3795572916667 8.69205729166666  C 33.0709635416667 9.00065104166666  32.9166666666667 9.39496527777777  32.9166666666667 9.875  L 32.9166666666667 18.1041666666667  C 32.9166666666667 18.5842013888889  33.0709635416667 18.978515625  33.3795572916667 19.287109375  C 33.6881510416667 19.595703125  34.0824652777778 19.75  34.5625 19.75  L 44.4375 19.75  C 44.9175347222222 19.75  45.3118489583333 19.595703125  45.6204427083333 19.287109375  Z M 73.7024739583333 19.6728515625  C 77.2341579861111 25.7247178819444  79 32.3337673611111  79 39.5  C 79 46.6662326388889  77.2341579861111 53.2752821180555  73.7024739583333 59.3271484375  C 70.1707899305556 65.3790147569444  65.3790147569444 70.1707899305556  59.3271484375 73.7024739583333  C 53.2752821180556 77.2341579861111  46.6662326388889 79  39.5 79  C 32.3337673611111 79  25.7247178819444 77.2341579861111  19.6728515625 73.7024739583333  C 13.6209852430556 70.1707899305556  8.82921006944444 65.3790147569444  5.29752604166667 59.3271484375  C 1.76584201388889 53.2752821180555  0 46.6662326388889  0 39.5  C 0 32.3337673611111  1.76584201388889 25.7247178819444  5.29752604166667 19.6728515625  C 8.82921006944444 13.6209852430556  13.6209852430556 8.82921006944444  19.6728515625 5.29752604166666  C 25.7247178819444 1.76584201388888  32.3337673611111 0  39.5 0  C 46.6662326388889 0  53.2752821180556 1.76584201388888  59.3271484375 5.29752604166666  C 65.3790147569444 8.82921006944444  70.1707899305556 13.6209852430556  73.7024739583333 19.6728515625  Z " fill-rule="nonzero" fill="#2699fb" stroke="none" transform="matrix(1 0 0 1 1084 2098 )" />
  </g>
</svg>