<?xml version="1.0" encoding="utf-8"?>
<svg version="1.1" xmlns:xlink="http://www.w3.org/1999/xlink" width="99px" height="79px" xmlns="http://www.w3.org/2000/svg">
  <g transform="matrix(1 0 0 1 -193 -2098 )">
    <path d="M 8.25 0  L 90.75 0  C 93.01875 0  94.9609375 0.805772569444437  96.5765625 2.41731770833334  C 98.1921875 4.02886284722222  99 5.96614583333334  99 8.22916666666666  L 99 70.7708333333333  C 99 73.0338541666667  98.1921875 74.9711371527778  96.5765625 76.5826822916667  C 94.9609375 78.1942274305556  93.01875 79  90.75 79  L 8.25 79  C 5.98125 79  4.0390625 78.1942274305556  2.4234375 76.5826822916667  C 0.8078125 74.9711371527778  0 73.0338541666667  0 70.7708333333333  L 0 8.22916666666666  C 0 5.96614583333334  0.8078125 4.02886284722222  2.4234375 2.41731770833334  C 4.0390625 0.805772569444437  5.98125 0  8.25 0  Z M 90.75 7  L 8.25 7  C 7.803125 6.58333333333334  7.41640625 6.74620225694444  7.08984375 7.07194010416666  C 6.76328125 7.39767795138888  6.6 7.78342013888888  7 8.22916666666666  L 7 20  L 92 20  L 92 8.22916666666666  C 92.4 7.78342013888888  92.23671875 7.39767795138888  91.91015625 7.07194010416666  C 91.58359375 6.74620225694444  91.196875 6.58333333333334  90.75 7  Z M 8.25 72  L 90.75 72  C 91.196875 72.4166666666667  91.58359375 72.2537977430556  91.91015625 71.9280598958333  C 92.23671875 71.6023220486111  92.4 71.2165798611111  92 70.7708333333333  L 92 39  L 7 39  L 7 70.7708333333333  C 6.6 71.2165798611111  6.76328125 71.6023220486111  7.08984375 71.9280598958333  C 7.41640625 72.2537977430556  7.803125 72.4166666666667  8.25 72  Z M 26.4 65  L 13.2 65  L 13.2 59  L 26.4 59  L 26.4 65  Z M 52.8 65  L 33 65  L 33 59  L 52.8 59  L 52.8 65  Z " fill-rule="nonzero" fill="#2699fb" stroke="none" transform="matrix(1 0 0 1 193 2098 )" />
  </g>
</svg>