<?xml version="1.0" encoding="utf-8"?>
<svg version="1.1" xmlns:xlink="http://www.w3.org/1999/xlink" width="73px" height="79px" xmlns="http://www.w3.org/2000/svg">
  <g transform="matrix(1 0 0 1 -793 -2098 )">
    <path d="M 11.263671875 65.9441105769231  C 11.8656684027778 65.3427483974359  12.1666666666667 64.630608974359  12.1666666666667 63.8076923076923  C 12.1666666666667 62.9847756410256  11.8656684027778 62.2726362179487  11.263671875 61.6712740384615  C 10.6616753472222 61.0699118589744  9.94878472222222 60.7692307692308  9.125 60.7692307692308  C 8.30121527777778 60.7692307692308  7.58832465277778 61.0699118589744  6.986328125 61.6712740384615  C 6.38433159722222 62.2726362179487  6.08333333333333 62.9847756410256  6.08333333333333 63.8076923076923  C 6.08333333333333 64.630608974359  6.38433159722222 65.3427483974359  6.986328125 65.9441105769231  C 7.58832465277778 66.5454727564102  8.30121527777778 66.8461538461538  9.125 66.8461538461538  C 9.94878472222222 66.8461538461538  10.6616753472222 66.5454727564102  11.263671875 65.9441105769231  Z M 65.8948567708333 40.3070913461538  C 66.5760633680556 38.8511618589744  66.9166666666667 37.5693108974359  66.9166666666667 36.4615384615385  C 66.9166666666667 34.8473557692308  66.298828125 33.4309895833333  65.0631510416667 32.2124399038462  C 63.8274739583333 30.993890224359  62.4175347222222 30.3846153846154  60.8333333333333 31  L 44.1041666666667 31  C 44.1041666666667 28.5488782051282  44.8645833333333 26.0247395833333  46.3854166666667 22.8121995192308  C 47.90625 19.5996594551282  48.6666666666667 17.0596955128205  48.6666666666667 15.1923076923077  C 48.6666666666667 12.0905448717949  48.1597222222222 9.79587339743589  47.1458333333333 8.30829326923077  C 46.1319444444445 6.82071314102564  44.1041666666667 6.07692307692307  41.0625 6.07692307692307  C 40.2387152777778 6.89983974358974  39.63671875 8.24499198717948  39.2565104166667 10.1123798076923  C 38.8763020833333 11.9797676282051  38.3931206597222 13.9658453525641  37.8069661458333 16.0706129807692  C 37.2208116319445 18.1753806089744  36.2782118055556 19.9082532051282  34.9791666666667 21.2692307692308  C 34.2821180555556 21.9971955128205  33.0622829861111 23.4372996794872  31.3196614583333 25.5895432692308  C 31.1929253472222 25.747796474359  30.8285590277778 26.2225560897436  30.2265625 27.0138221153846  C 29.6245659722222 27.8050881410256  29.1255425347222 28.4539262820513  28.7294921875 28.9603365384615  C 28.3334418402778 29.4667467948718  27.7868923611111 30.1393229166667  27.08984375 30.9780649038462  C 26.3927951388889 31.8168068910256  25.7591145833333 32.5131209935897  25.1888020833333 33.0670072115385  C 24.6184895833333 33.6208934294872  24.0085720486111 34.1826923076923  23.3590494791667 34.7524038461538  C 22.7095269097222 35.3221153846154  22.0758463541667 35.7493990384615  21.4580078125 36.0342548076923  C 20.8401692708333 36.3191105769231  20.2777777777778 36.4615384615385  19.7708333333333 36.4615384615385  L 19 36.4615384615385  L 19 66.8461538461538  L 19.7708333333333 66.8461538461538  C 20.1827256944444 66.8461538461538  20.6817491319444 66.8936298076923  21.2679036458333 66.9885817307692  C 21.8540581597222 67.0835336538462  22.3768446180556 67.1863982371795  22.8362630208333 67.2971754807692  C 23.2956814236111 67.407952724359  23.8976779513889 67.58203125  24.6422526041667 67.8194110576923  C 25.3868272569444 68.0567908653846  25.9412977430556 68.238782051282  26.3056640625 68.3653846153846  C 26.6700303819444 68.4919871794872  27.232421875 68.6898036858974  27.9928385416667 68.9588341346154  C 28.7532552083333 69.2278645833333  29.2126736111111 69.394030448718  29.37109375 69.4573317307692  C 36.0564236111111 71.767828525641  41.4743923611111 72.9230769230769  45.625 72.9230769230769  L 51.3756510416667 72.9230769230769  C 57.458984375 72.9230769230769  60.5006510416667 70.2802483974359  60.5006510416667 64.9945913461538  C 60.5006510416667 64.1716746794872  60.4214409722222 63.2854567307692  60.2630208333333 62.3359375  C 61.2135416666667 61.8295272435897  61.9660373263889 60.9986979166667  62.5205078125 59.8434495192308  C 63.0749782986111 58.6882011217949  63.3522135416667 57.5250400641026  63.3522135416667 56.3539663461538  C 63.3522135416667 55.1828926282051  63.0670572916667 54.0909455128205  62.4967447916667 53.078125  C 64.1759982638889 51.4955929487179  65.015625 49.6123798076923  65.015625 47.4284855769231  C 65.015625 46.637219551282  64.8572048611111 45.7589142628205  64.5403645833333 44.7935697115385  C 64.2235243055556 43.8282251602564  63.8274739583333 43.0765224358974  63.3522135416667 42.5384615384615  C 64.3661024305556 42.5068108974359  65.2136501736111 41.7630208333333  65.8948567708333 40.3070913461538  Z M 69.3880208333333 27.9158653846154  C 71.7960069444444 30.3213141025641  73 33.154046474359  73 36.4140625  C 73 39.230969551282  72.2237413194444 41.8104967948718  70.6712239583333 44.1526442307692  C 70.9563802083333 45.1971153846154  71.0989583333333 46.2890625  71.0989583333333 47.4284855769231  C 71.0989583333333 49.8655849358974  70.4969618055556 52.1444310897436  69.29296875 54.2650240384615  C 69.3880208333333 54.9296875  69.435546875 55.6101762820513  69.435546875 56.3064903846154  C 69.435546875 59.5032051282051  68.4850260416667 62.3201121794872  66.583984375 64.7572115384615  C 66.6156684027778 69.1566506410256  65.2690972222222 72.6303084935897  62.5442708333333 75.1781850961538  C 59.8194444444445 77.726061698718  56.2233072916667 79  51.755859375 79  L 50.044921875 79  L 45.625 79  C 42.5833333333333 79  39.5812717013889 78.6439302884615  36.6188151041667 77.9317908653846  C 33.6563585069445 77.2196514423077  30.2265625 76.183092948718  26.3294270833333 74.8221153846154  C 22.6540798611111 73.5560897435897  20.4678819444444 72.9230769230769  19.7708333333333 73  L 6.08333333333333 73  C 4.40407986111111 72.9230769230769  2.97037760416667 72.3296274038462  1.7822265625 71.1427283653846  C 0.594075520833333 69.9558293269231  0 68.5236378205128  0 66.8461538461538  L 0 36.4615384615385  C 0 34.7840544871795  0.594075520833333 33.3518629807692  1.7822265625 32.1649639423077  C 2.97037760416667 30.9780649038462  4.40407986111111 30.3846153846154  6.08333333333333 31  L 19.10546875 31  C 20.24609375 29.625  22.4164496527778 27.1720753205128  25.6165364583333 23.0258413461538  C 27.4542100694444 20.6520432692308  29.1493055555556 18.6264022435897  30.7018229166667 16.9489182692308  C 31.4622395833333 16.1576522435897  32.0246310763889 14.8045873397436  32.3889973958333 12.8897235576923  C 32.7533637152778 10.974859775641  33.2365451388889 8.97295673076923  33.8385416666667 6.88401442307693  C 34.4405381944445 4.79507211538462  35.4227430555556 3.0859375  36.78515625 1.75661057692307  C 38.0208333333333 0.585536858974363  39.4466145833333 0  41.0625 0  C 43.7239583333333 0  46.1161024305556 0.514322916666673  48.2389322916667 1.54296875  C 50.3617621527778 2.57161458333333  51.9776475694445 4.17788461538462  53.0865885416667 6.36177884615385  C 54.1955295138889 8.54567307692307  54.75 11.4891826923077  54.75 15.1923076923077  C 54.75 18.1358173076923  53.9895833333333 21.1742788461538  52.46875 24.3076923076923  L 60.8333333333333 24.3076923076923  C 64.1284722222222 24.3076923076923  66.9800347222222 25.5104166666667  69.3880208333333 27.9158653846154  Z " fill-rule="nonzero" fill="#2699fb" stroke="none" transform="matrix(1 0 0 1 793 2098 )" />
  </g>
</svg>