<?xml version="1.0" encoding="utf-8"?>
<svg version="1.1" xmlns:xlink="http://www.w3.org/1999/xlink" width="23px" height="23px" xmlns="http://www.w3.org/2000/svg">
  <g transform="matrix(1 0 0 1 -139 -2719 )">
    <path d="M 4.3125 0  L 18.6875 0  C 19.8754340277778 0  20.8911675347222 0.421766493055554  21.7347005208333 1.26529947916667  C 22.5782335069444 2.10883246527778  23 3.12456597222222  23 4.3125  L 23 18.6875  C 23 19.8754340277778  22.5782335069444 20.8911675347222  21.7347005208333 21.7347005208333  C 20.8911675347222 22.5782335069444  19.8754340277778 23  18.6875 23  L 15.8723958333333 23  L 15.8723958333333 14.0904947916667  L 18.8522135416667 14.0904947916667  L 19.3014322916667 10.6165364583333  L 15.8723958333333 10.6165364583333  L 15.8723958333333 8.400390625  C 15.8723958333333 7.84136284722222  15.9896918402778 7.42209201388889  16.2242838541667 7.142578125  C 16.4588758680556 6.86306423611111  16.9155815972222 6.72330729166667  17.5944010416667 6.72330729166667  L 19.4212239583333 6.70833333333333  L 19.4212239583333 3.60872395833333  C 18.7923177083333 3.51888020833333  17.9038628472222 3.47395833333333  16.755859375 3.47395833333333  C 15.3982204861111 3.47395833333333  14.3126085069444 3.87326388888889  13.4990234375 4.671875  C 12.6854383680556 5.47048611111111  12.2786458333333 6.59852430555555  12.2786458333333 8.05598958333333  L 12.2786458333333 10.6165364583333  L 9.28385416666667 10.6165364583333  L 9.28385416666667 14.0904947916667  L 12.2786458333333 14.0904947916667  L 12.2786458333333 23  L 4.3125 23  C 3.12456597222222 23  2.10883246527778 22.5782335069444  1.26529947916667 21.7347005208333  C 0.421766493055555 20.8911675347222  0 19.8754340277778  0 18.6875  L 0 4.3125  C 0 3.12456597222222  0.421766493055555 2.10883246527778  1.26529947916667 1.26529947916667  C 2.10883246527778 0.421766493055554  3.12456597222222 0  4.3125 0  Z " fill-rule="nonzero" fill="#ffffff" stroke="none" transform="matrix(1 0 0 1 139 2719 )" />
  </g>
</svg>