<?xml version="1.0" encoding="utf-8"?>
<svg version="1.1" xmlns:xlink="http://www.w3.org/1999/xlink" width="23px" height="17px" xmlns="http://www.w3.org/2000/svg">
  <g transform="matrix(1 0 0 1 -214 -2723 )">
    <path d="M 9.12820512820513 4.84365079365079  L 9.12820512820513 11.6301587301587  L 15.3333333333333 8.25714285714286  L 9.12820512820513 4.84365079365079  Z M 3.46153846153846 0.242857142857142  C 5.60683760683761 0.0809523809523807  8.28632478632479 0  11.5 0  C 12.9358974358974 0  14.3226495726496 0.0202380952380952  15.6602564102564 0.0607142857142855  C 16.9978632478633 0.101190476190476  17.9786324786325 0.143915343915343  18.6025641025641 0.188888888888888  L 19.5384615384615 0.242857142857142  C 19.5470085470085 0.242857142857142  19.6196581196581 0.249603174603174  19.7564102564103 0.263095238095237  C 19.8931623931624 0.276587301587302  19.991452991453 0.290079365079366  20.0512820512821 0.303571428571429  C 20.1111111111111 0.317063492063493  20.2115384615385 0.337301587301588  20.3525641025641 0.364285714285715  C 20.4935897435897 0.391269841269842  20.6153846153846 0.427248677248675  20.7179487179487 0.472222222222222  C 20.8205128205128 0.517195767195766  20.9401709401709 0.575661375661373  21.0769230769231 0.647619047619047  C 21.2136752136752 0.719576719576718  21.3461538461539 0.807275132275132  21.474358974359 0.910714285714286  C 21.6025641025641 1.01415343915344  21.7264957264957 1.13333333333333  21.8461538461538 1.26825396825397  C 21.8974358974359 1.32222222222222  21.9636752136752 1.40542328042328  22.0448717948718 1.51785714285714  C 22.1260683760684 1.630291005291  22.25 1.89338624338624  22.4166666666667 2.30714285714286  C 22.5833333333333 2.72089947089947  22.6965811965812 3.17513227513227  22.7564102564103 3.66984126984127  C 22.8247863247863 4.24550264550265  22.8782051282051 4.85939153439153  22.9166666666667 5.51150793650794  C 22.9551282051282 6.16362433862434  22.9786324786325 6.67407407407407  22.9871794871795 7.04285714285714  L 22.9871794871795 7.58253968253968  L 22.9871794871795 9.41746031746032  C 22.9957264957265 10.7216931216931  22.9188034188034 12.0259259259259  22.7564102564103 13.3301587301587  C 22.6965811965812 13.8248677248677  22.5897435897436 14.2723544973545  22.4358974358974 14.672619047619  C 22.2820512820513 15.0728835978836  22.1452991452991 15.3494708994709  22.025641025641 15.502380952381  L 21.8461538461538 15.731746031746  C 21.7264957264957 15.8666666666667  21.6025641025641 15.9858465608466  21.474358974359 16.0892857142857  C 21.3461538461539 16.1927248677249  21.2136752136752 16.2781746031746  21.0769230769231 16.3456349206349  C 20.9401709401709 16.4130952380952  20.8205128205128 16.4693121693122  20.7179487179487 16.5142857142857  C 20.6153846153846 16.5592592592593  20.4935897435897 16.5952380952381  20.3525641025641 16.6222222222222  C 20.2115384615385 16.6492063492063  20.1089743589744 16.6694444444444  20.0448717948718 16.6829365079365  C 19.9807692307692 16.6964285714286  19.8824786324786 16.7099206349206  19.75 16.7234126984127  C 19.6175213675214 16.7369047619048  19.5470085470085 16.7436507936508  19.5384615384615 16.7436507936508  C 17.3931623931624 16.9145502645503  14.7136752136752 17  11.5 17  C 9.73076923076923 16.9820105820106  8.19444444444444 16.9527777777778  6.89102564102564 16.9123015873016  C 5.58760683760684 16.8718253968254  4.73076923076923 16.8380952380952  4.32051282051282 16.8111111111111  L 3.69230769230769 16.7571428571429  L 3.23076923076923 16.7031746031746  C 2.92307692307692 16.6582010582011  2.69017094017094 16.6132275132275  2.53205128205128 16.568253968254  C 2.37393162393162 16.5232804232804  2.15598290598291 16.428835978836  1.87820512820513 16.2849206349206  C 1.60042735042735 16.1410052910053  1.35897435897436 15.9566137566138  1.15384615384615 15.731746031746  C 1.1025641025641 15.6777777777778  1.03632478632479 15.5945767195767  0.955128205128205 15.4821428571429  C 0.873931623931624 15.369708994709  0.75 15.1066137566138  0.583333333333333 14.6928571428571  C 0.416666666666667 14.2791005291005  0.303418803418803 13.8248677248677  0.243589743589744 13.3301587301587  C 0.175213675213675 12.7544973544974  0.121794871794872 12.1406084656085  0.0833333333333333 11.4884920634921  C 0.0448717948717949 10.8363756613757  0.0213675213675214 10.3259259259259  0.0128205128205128 9.95714285714286  L 0.0128205128205128 9.41746031746032  L 0.0128205128205128 7.58253968253968  C 0.00427350427350427 6.27830687830688  0.0811965811965812 4.97407407407407  0.243589743589744 3.66984126984127  C 0.303418803418803 3.17513227513227  0.41025641025641 2.7276455026455  0.564102564102564 2.32738095238095  C 0.717948717948718 1.9271164021164  0.854700854700855 1.6505291005291  0.974358974358974 1.49761904761905  L 1.15384615384615 1.26825396825397  C 1.27350427350427 1.13333333333333  1.3974358974359 1.01415343915344  1.52564102564103 0.910714285714286  C 1.65384615384615 0.807275132275132  1.78632478632479 0.719576719576718  1.92307692307692 0.647619047619047  C 2.05982905982906 0.575661375661373  2.17948717948718 0.517195767195766  2.28205128205128 0.472222222222222  C 2.38461538461538 0.427248677248675  2.50641025641026 0.391269841269842  2.6474358974359 0.364285714285715  C 2.78846153846154 0.337301587301588  2.88888888888889 0.317063492063493  2.94871794871795 0.303571428571429  C 3.00854700854701 0.290079365079366  3.10683760683761 0.276587301587302  3.24358974358974 0.263095238095237  C 3.38034188034188 0.249603174603174  3.45299145299145 0.242857142857142  3.46153846153846 0.242857142857142  Z " fill-rule="nonzero" fill="#ffffff" stroke="none" transform="matrix(1 0 0 1 214 2723 )" />
  </g>
</svg>