<?xml version="1.0" encoding="utf-8"?>
<svg version="1.1" xmlns:xlink="http://www.w3.org/1999/xlink" width="31px" height="24px" xmlns="http://www.w3.org/2000/svg">
  <g transform="matrix(1 0 0 1 -139 -2619 )">
    <path d="M 28.6213727678571 21.65625  C 28.7309337797619 21.5482954545455  28.7857142857143 21.4204545454545  28.7857142857143 21.2727272727273  L 28.7857142857143 8.18181818181818  C 28.4166666666667 8.59090909090909  28.018787202381 8.96590909090909  27.5920758928571 9.30681818181818  C 24.5013020833333 11.6477272727273  22.0448288690476 13.5681818181818  20.22265625 15.0681818181818  C 19.6344866071429 15.5568181818182  19.1558779761905 15.9375  18.7868303571429 16.2102272727273  C 18.4177827380952 16.4829545454545  17.9189918154762 16.7585227272727  17.2904575892857 17.0369318181818  C 16.6619233630952 17.3153409090909  16.0708705357143 17.4545454545455  15.5172991071429 17.4545454545455  L 15.5 17.4545454545455  L 15.4827008928571 17.4545454545455  C 14.9291294642857 17.4545454545455  14.3380766369048 17.3153409090909  13.7095424107143 17.0369318181818  C 13.0810081845238 16.7585227272727  12.5822172619048 16.4829545454545  12.2131696428571 16.2102272727273  C 11.8441220238095 15.9375  11.3655133928571 15.5568181818182  10.77734375 15.0681818181818  C 8.95517113095238 13.5681818181818  6.49869791666667 11.6477272727273  3.40792410714286 9.30681818181818  C 2.98121279761905 8.96590909090909  2.58333333333333 8.59090909090909  2.21428571428571 8.18181818181818  L 2.21428571428571 21.2727272727273  C 2.21428571428571 21.4204545454545  2.2690662202381 21.5482954545455  2.37862723214286 21.65625  C 2.48818824404762 21.7642045454545  2.61793154761905 21.8181818181818  2.76785714285714 21.8181818181818  L 28.2321428571429 21.8181818181818  C 28.382068452381 21.8181818181818  28.5118117559524 21.7642045454545  28.6213727678571 21.65625  Z M 27.9813058035714 5.59943181818182  C 28.517578125 4.77556818181818  28.7857142857143 4.02840909090909  28.7857142857143 3.35795454545455  L 28.7857142857143 3.17045454545455  L 28.7857142857143 2.94034090909091  C 28.7857142857143 2.94034090909091  28.7828311011905 2.86647727272727  28.7770647321429 2.71875  C 28.7712983630952 2.57102272727273  28.7539992559524 2.5  28.7251674107143 2.50568181818182  C 28.6963355654762 2.51136363636364  28.6646205357143 2.46022727272727  28.6300223214286 2.35227272727273  C 28.5954241071429 2.24431818181818  28.5435267857143 2.20170454545454  28.4743303571429 2.22443181818182  C 28.4051339285714 2.24715909090909  28.3244047619048 2.23295454545455  28.2321428571429 2.18181818181818  L 2.76785714285714 2.18181818181818  C 2.61793154761905 2.18181818181818  2.48818824404762 2.23579545454545  2.37862723214286 2.34375  C 2.2690662202381 2.45170454545454  2.21428571428571 2.57954545454545  2.21428571428571 2.72727272727273  C 2.21428571428571 4.63636363636364  3.06194196428571 6.25  4.75725446428571 7.56818181818182  C 6.98307291666667 9.29545454545454  9.29538690476191 11.0965909090909  11.6941964285714 12.9715909090909  C 11.7633928571429 13.0284090909091  11.9652157738095 13.1960227272727  12.2996651785714 13.4744318181818  C 12.6341145833333 13.7528409090909  12.8993675595238 13.9659090909091  13.0954241071429 14.1136363636364  C 13.2914806547619 14.2613636363636  13.548084077381 14.4403409090909  13.865234375 14.6505681818182  C 14.182384672619 14.8607954545455  14.4735863095238 15.0170454545455  14.7388392857143 15.1193181818182  C 15.0040922619048 15.2215909090909  15.2520461309524 15.2727272727273  15.4827008928571 15.2727272727273  L 15.5 15.2727272727273  L 15.5172991071429 15.2727272727273  C 15.7479538690476 15.2727272727273  15.9959077380952 15.2215909090909  16.2611607142857 15.1193181818182  C 16.5264136904762 15.0170454545455  16.817615327381 14.8607954545455  17.134765625 14.6505681818182  C 17.451915922619 14.4403409090909  17.7085193452381 14.2613636363636  17.9045758928571 14.1136363636364  C 18.1006324404762 13.9659090909091  18.3658854166667 13.7528409090909  18.7003348214286 13.4744318181818  C 19.0347842261905 13.1960227272727  19.2366071428571 13.0284090909091  19.3058035714286 12.9715909090909  C 21.7046130952381 11.0965909090909  24.0169270833333 9.29545454545454  26.2427455357143 7.56818181818182  C 26.8655133928571 7.07954545454545  27.4450334821429 6.42329545454545  27.9813058035714 5.59943181818182  Z M 30.1869419642857 0.801136363636362  C 30.7289806547619 1.33522727272727  31 1.97727272727273  31 2.72727272727273  L 31 21.2727272727273  C 31 22.0227272727273  30.7289806547619 22.6647727272727  30.1869419642857 23.1988636363636  C 29.6449032738095 23.7329545454545  28.9933035714286 24  28.2321428571429 24  L 2.76785714285714 24  C 2.00669642857143 24  1.35509672619048 23.7329545454545  0.813058035714286 23.1988636363636  C 0.271019345238095 22.6647727272727  0 22.0227272727273  0 21.2727272727273  L 0 2.72727272727273  C 0 1.97727272727273  0.271019345238095 1.33522727272727  0.813058035714286 0.801136363636362  C 1.35509672619048 0.267045454545451  2.00669642857143 0  2.76785714285714 0  L 28.2321428571429 0  C 28.9933035714286 0  29.6449032738095 0.267045454545451  30.1869419642857 0.801136363636362  Z " fill-rule="nonzero" fill="#ffffff" stroke="none" transform="matrix(1 0 0 1 139 2619 )" />
  </g>
</svg>