<?xml version="1.0" encoding="utf-8"?>
<svg version="1.1" xmlns:xlink="http://www.w3.org/1999/xlink" width="30px" height="24px" xmlns="http://www.w3.org/2000/svg">
  <g transform="matrix(1 0 0 1 -36 -4094 )">
    <path d="M 27.6981026785714 21.65625  C 27.8041294642857 21.5482954545455  27.8571428571429 21.4204545454545  27.8571428571429 21.2727272727273  L 27.8571428571429 8.18181818181818  C 27.5 8.59090909090909  27.1149553571429 8.96590909090909  26.7020089285714 9.30681818181818  C 23.7109375 11.6477272727273  21.3337053571429 13.5681818181818  19.5703125 15.0681818181818  C 19.0011160714286 15.5568181818182  18.5379464285714 15.9375  18.1808035714286 16.2102272727273  C 17.8236607142857 16.4829545454545  17.3409598214286 16.7585227272727  16.7327008928571 17.0369318181818  C 16.1244419642857 17.3153409090909  15.5524553571429 17.4545454545455  15.0167410714286 17.4545454545455  L 15 17.4545454545455  L 14.9832589285714 17.4545454545455  C 14.4475446428571 17.4545454545455  13.8755580357143 17.3153409090909  13.2672991071429 17.0369318181818  C 12.6590401785714 16.7585227272727  12.1763392857143 16.4829545454545  11.8191964285714 16.2102272727273  C 11.4620535714286 15.9375  10.9988839285714 15.5568181818182  10.4296875 15.0681818181818  C 8.66629464285714 13.5681818181818  6.2890625 11.6477272727273  3.29799107142857 9.30681818181818  C 2.88504464285714 8.96590909090909  2.5 8.59090909090909  2.14285714285714 8.18181818181818  L 2.14285714285714 21.2727272727273  C 2.14285714285714 21.4204545454545  2.19587053571429 21.5482954545455  2.30189732142857 21.65625  C 2.40792410714286 21.7642045454545  2.53348214285714 21.8181818181818  2.67857142857143 21.8181818181818  L 27.3214285714286 21.8181818181818  C 27.4665178571429 21.8181818181818  27.5920758928571 21.7642045454545  27.6981026785714 21.65625  Z M 27.0786830357143 5.59943181818182  C 27.59765625 4.77556818181818  27.8571428571429 4.02840909090909  27.8571428571429 3.35795454545455  L 27.8571428571429 3.17045454545455  L 27.8571428571429 2.94034090909091  C 27.8571428571429 2.94034090909091  27.8543526785714 2.86647727272727  27.8487723214286 2.71875  C 27.8431919642857 2.57102272727273  27.8264508928571 2.5  27.7985491071429 2.50568181818182  C 27.7706473214286 2.51136363636364  27.7399553571429 2.46022727272727  27.7064732142857 2.35227272727273  C 27.6729910714286 2.24431818181818  27.6227678571429 2.20170454545454  27.5558035714286 2.22443181818182  C 27.4888392857143 2.24715909090909  27.4107142857143 2.23295454545455  27.3214285714286 2.18181818181818  L 2.67857142857143 2.18181818181818  C 2.53348214285714 2.18181818181818  2.40792410714286 2.23579545454545  2.30189732142857 2.34375  C 2.19587053571429 2.45170454545454  2.14285714285714 2.57954545454545  2.14285714285714 2.72727272727273  C 2.14285714285714 4.63636363636364  2.96316964285714 6.25  4.60379464285714 7.56818181818182  C 6.7578125 9.29545454545454  8.99553571428572 11.0965909090909  11.3169642857143 12.9715909090909  C 11.3839285714286 13.0284090909091  11.5792410714286 13.1960227272727  11.9029017857143 13.4744318181818  C 12.2265625 13.7528409090909  12.4832589285714 13.9659090909091  12.6729910714286 14.1136363636364  C 12.8627232142857 14.2613636363636  13.1110491071429 14.4403409090909  13.41796875 14.6505681818182  C 13.7248883928571 14.8607954545455  14.0066964285714 15.0170454545455  14.2633928571429 15.1193181818182  C 14.5200892857143 15.2215909090909  14.7600446428571 15.2727272727273  14.9832589285714 15.2727272727273  L 15 15.2727272727273  L 15.0167410714286 15.2727272727273  C 15.2399553571429 15.2727272727273  15.4799107142857 15.2215909090909  15.7366071428571 15.1193181818182  C 15.9933035714286 15.0170454545455  16.2751116071429 14.8607954545455  16.58203125 14.6505681818182  C 16.8889508928571 14.4403409090909  17.1372767857143 14.2613636363636  17.3270089285714 14.1136363636364  C 17.5167410714286 13.9659090909091  17.7734375 13.7528409090909  18.0970982142857 13.4744318181818  C 18.4207589285714 13.1960227272727  18.6160714285714 13.0284090909091  18.6830357142857 12.9715909090909  C 21.0044642857143 11.0965909090909  23.2421875 9.29545454545454  25.3962053571429 7.56818181818182  C 25.9988839285714 7.07954545454545  26.5597098214286 6.42329545454545  27.0786830357143 5.59943181818182  Z M 29.2131696428571 0.801136363636362  C 29.7377232142857 1.33522727272727  30 1.97727272727273  30 2.72727272727273  L 30 21.2727272727273  C 30 22.0227272727273  29.7377232142857 22.6647727272727  29.2131696428571 23.1988636363636  C 28.6886160714286 23.7329545454545  28.0580357142857 24  27.3214285714286 24  L 2.67857142857143 24  C 1.94196428571429 24  1.31138392857143 23.7329545454545  0.786830357142857 23.1988636363636  C 0.262276785714286 22.6647727272727  0 22.0227272727273  0 21.2727272727273  L 0 2.72727272727273  C 0 1.97727272727273  0.262276785714286 1.33522727272727  0.786830357142857 0.801136363636362  C 1.31138392857143 0.267045454545451  1.94196428571429 0  2.67857142857143 0  L 27.3214285714286 0  C 28.0580357142857 0  28.6886160714286 0.267045454545451  29.2131696428571 0.801136363636362  Z " fill-rule="nonzero" fill="#ffffff" stroke="none" transform="matrix(1 0 0 1 36 4094 )" />
  </g>
</svg>